<svg width="203" height="54" viewBox="0 0 203 54" fill="none" xmlns="http://www.w3.org/2000/svg">
<path d="M0 27.4773C0 24.2128 3.66102 21.0106 10.1538 16.2174C15.6128 12.1874 24.3843 7.00446 27.0392 5.45611C27.4854 5.19592 28.0509 5.3196 28.3488 5.74145C29.6574 7.59416 33.0456 12.3841 34.1538 13.8804C35.5385 15.75 39.0976 20.8913 41.5385 20.8913C43.4238 20.8913 49.8315 18.6604 52.6504 17.645C53.3066 17.4086 54 17.8952 54 18.5927V27.4773L54 35.3842C54 36.1321 53.2096 36.6199 52.539 36.2887C49.9832 35.0266 44.8344 32.5761 43.3846 32.5761C41.4319 32.5761 39.5414 33.8295 38.0769 35.7841C36.8417 37.4326 31.4395 44.9901 29.778 47.3165C29.4956 47.7118 28.9706 47.8469 28.5336 47.6348C25.9418 46.3769 17.3743 42.166 13.6686 39.6932C9.27515 36.7614 0 30.7418 0 27.4773Z" fill="white"/>
<rect x="17" y="26" width="21" height="2" rx="1" fill="black"/>
<path d="M5 27.4998C5 25.9706 9.94997 22.0833 14 21C12.2 25.2059 12.2 29.7941 14 34C9.05 32.1944 5 29.0291 5 27.4998Z" fill="black"/>
<path d="M43.4892 25.629C45.956 24.1944 50.7434 21.4479 52 21C49.619 23.2917 49.6151 25.6731 49.619 27.4167C49.6238 29.5061 50.0952 29.7083 52 32C50.4799 31.2611 45.9021 28.6995 43.5034 27.3488C42.8332 26.9715 42.8243 26.0156 43.4892 25.629Z" fill="black"/>
<path d="M21 15C17.6667 19.2484 17 23.8944 17 27H19.4C19.1333 24.3665 20.3333 18.7764 21 15Z" fill="black"/>
<path d="M28 17C24.6667 20.5404 24 24.412 24 27H26.4C26.1333 24.8054 27.3333 20.147 28 17Z" fill="black"/>
<path d="M34 20C30.6667 22.4783 30 25.1884 30 27H32.4C32.1333 25.4638 33.3333 22.2029 34 20Z" fill="black"/>
<path d="M40 23C37.5 24.4161 37 25.9648 37 27H38.8C38.6 26.1222 39.5 24.2588 40 23Z" fill="black"/>
<path d="M28 37C24.6667 33.4596 24 29.588 24 27H26.4C26.1333 29.1946 27.3333 33.853 28 37Z" fill="black"/>
<path d="M21 39C17.6667 34.7516 17 30.1056 17 27H19.4C19.1333 29.6335 20.3333 35.2236 21 39Z" fill="black"/>
<path d="M34 34C30.6667 31.5217 30 28.8116 30 27H32.4C32.1333 28.5362 33.3333 31.7971 34 34Z" fill="black"/>
<path d="M40 31C37.5 29.5839 37 28.0352 37 27H38.8C38.6 27.8778 39.5 29.7412 40 31Z" fill="black"/>
<path d="M198.019 35.7121H197.635C197.123 36.7787 196.408 37.5681 195.491 38.0801C194.595 38.5921 193.645 38.8481 192.643 38.8481C191.597 38.8481 190.627 38.6774 189.731 38.3361C188.835 37.9734 188.045 37.4507 187.363 36.7681C186.701 36.0641 186.179 35.2107 185.795 34.2081C185.411 33.2054 185.219 32.0427 185.219 30.7201V30.2081C185.219 28.9067 185.411 27.7547 185.795 26.7521C186.179 25.7494 186.701 24.9067 187.363 24.2241C188.045 23.5201 188.835 22.9867 189.731 22.6241C190.627 22.2614 191.576 22.0801 192.579 22.0801C193.667 22.0801 194.648 22.3254 195.523 22.8161C196.419 23.2854 197.123 24.0214 197.635 25.0241H198.019V22.5281H200.515V35.1361C200.515 35.7761 200.803 36.0961 201.379 36.0961H202.179V38.4001H200.483C199.757 38.4001 199.16 38.1654 198.691 37.6961C198.243 37.2267 198.019 36.6294 198.019 35.9041V35.7121ZM192.899 36.4801C193.645 36.4801 194.328 36.3414 194.947 36.0641C195.587 35.7867 196.131 35.3921 196.579 34.8801C197.027 34.3681 197.379 33.7601 197.635 33.0561C197.891 32.3307 198.019 31.5307 198.019 30.6561V30.2721C198.019 29.4187 197.891 28.6401 197.635 27.9361C197.379 27.2107 197.016 26.5921 196.547 26.0801C196.099 25.5681 195.555 25.1734 194.915 24.8961C194.296 24.5974 193.624 24.4481 192.899 24.4481C192.152 24.4481 191.469 24.5867 190.851 24.8641C190.232 25.1414 189.688 25.5361 189.219 26.0481C188.771 26.5387 188.419 27.1467 188.163 27.8721C187.907 28.5761 187.779 29.3547 187.779 30.2081V30.7201C187.779 32.5334 188.248 33.9521 189.187 34.9761C190.147 35.9787 191.384 36.4801 192.899 36.4801Z" fill="white"/>
<path d="M166.905 36.096H172.665V18.304H167.097V16H175.161V36.096H180.921V38.4H166.905V36.096Z" fill="white"/>
<path d="M149.135 31.2321C149.199 32.8107 149.69 34.0801 150.607 35.0401C151.524 36.0001 152.804 36.4801 154.447 36.4801C155.194 36.4801 155.844 36.3947 156.399 36.2241C156.954 36.0534 157.423 35.8187 157.807 35.5201C158.212 35.2214 158.532 34.8801 158.767 34.4961C159.023 34.0907 159.226 33.6641 159.375 33.2161L161.743 33.8561C161.295 35.3281 160.463 36.5334 159.247 37.4721C158.052 38.3894 156.431 38.8481 154.383 38.8481C153.252 38.8481 152.207 38.6561 151.247 38.2721C150.308 37.8667 149.498 37.3014 148.815 36.5761C148.132 35.8507 147.599 34.9867 147.215 33.9841C146.831 32.9814 146.639 31.8721 146.639 30.6561V29.8881C146.639 28.7787 146.831 27.7441 147.215 26.7841C147.62 25.8241 148.175 25.0027 148.879 24.3201C149.583 23.6161 150.404 23.0721 151.343 22.6881C152.303 22.2827 153.338 22.0801 154.447 22.0801C155.748 22.0801 156.868 22.3254 157.807 22.8161C158.767 23.2854 159.546 23.8721 160.143 24.5761C160.762 25.2801 161.21 26.0481 161.487 26.8801C161.786 27.7121 161.935 28.4801 161.935 29.1841V31.2321H149.135ZM154.447 24.4481C153.743 24.4481 153.082 24.5654 152.463 24.8001C151.866 25.0134 151.332 25.3227 150.863 25.7281C150.415 26.1334 150.042 26.6134 149.743 27.1681C149.466 27.7014 149.284 28.2881 149.199 28.9281H159.439C159.396 28.2454 159.226 27.6267 158.927 27.0721C158.65 26.5174 158.276 26.0481 157.807 25.6641C157.359 25.2801 156.836 24.9814 156.239 24.7681C155.663 24.5547 155.066 24.4481 154.447 24.4481Z" fill="white"/>
<path d="M129.637 44.8001H127.141V22.5281H129.637V25.0241H130.021C130.576 24.0641 131.344 23.3387 132.325 22.8481C133.307 22.3361 134.373 22.0801 135.525 22.0801C136.507 22.0801 137.435 22.2614 138.309 22.6241C139.184 22.9867 139.952 23.5094 140.613 24.1921C141.296 24.8747 141.829 25.7174 142.213 26.7201C142.619 27.7227 142.821 28.8641 142.821 30.1441V30.7841C142.821 32.0854 142.629 33.2374 142.245 34.2401C141.861 35.2427 141.328 36.0854 140.645 36.7681C139.984 37.4507 139.205 37.9734 138.309 38.3361C137.413 38.6774 136.464 38.8481 135.461 38.8481C134.949 38.8481 134.427 38.7841 133.893 38.6561C133.36 38.5494 132.848 38.3787 132.357 38.1441C131.888 37.8881 131.451 37.5894 131.045 37.2481C130.64 36.8854 130.299 36.4587 130.021 35.9681H129.637V44.8001ZM134.949 36.4801C135.717 36.4801 136.421 36.3521 137.061 36.0961C137.701 35.8187 138.256 35.4347 138.725 34.9441C139.216 34.4534 139.589 33.8561 139.845 33.1521C140.123 32.4481 140.261 31.6587 140.261 30.7841V30.1441C140.261 29.2907 140.123 28.5227 139.845 27.8401C139.589 27.1361 139.216 26.5387 138.725 26.0481C138.256 25.5361 137.691 25.1414 137.029 24.8641C136.389 24.5867 135.696 24.4481 134.949 24.4481C134.203 24.4481 133.509 24.5974 132.869 24.8961C132.229 25.1734 131.664 25.5681 131.173 26.0801C130.704 26.5921 130.331 27.2107 130.053 27.9361C129.776 28.6401 129.637 29.4187 129.637 30.2721V30.6561C129.637 31.5307 129.776 32.3307 130.053 33.0561C130.331 33.7601 130.704 34.3681 131.173 34.8801C131.664 35.3921 132.229 35.7867 132.869 36.0641C133.509 36.3414 134.203 36.4801 134.949 36.4801Z" fill="white"/>
<path d="M123.387 38.4001H120.891V27.0081C120.891 26.2614 120.721 25.6534 120.379 25.1841C120.038 24.6934 119.494 24.4481 118.747 24.4481C118.043 24.4481 117.467 24.7147 117.019 25.2481C116.593 25.7601 116.379 26.5601 116.379 27.6481V38.4001H113.883V26.8801C113.883 26.1761 113.691 25.6001 113.307 25.1521C112.923 24.6827 112.411 24.4481 111.771 24.4481C111.003 24.4481 110.406 24.7254 109.979 25.2801C109.574 25.8347 109.371 26.5601 109.371 27.4561V38.4001H106.875V22.5281H109.371V24.2561H109.755C110.033 23.5094 110.438 22.9654 110.971 22.6241C111.505 22.2614 112.134 22.0801 112.859 22.0801C113.627 22.0801 114.257 22.2827 114.747 22.6881C115.259 23.0934 115.611 23.6161 115.803 24.2561H116.187C116.913 22.8054 118.065 22.0801 119.643 22.0801C120.838 22.0801 121.755 22.4641 122.395 23.2321C123.057 23.9787 123.387 24.9601 123.387 26.1761V38.4001Z" fill="white"/>
<path d="M100.05 35.7121H99.6658C99.1538 36.7787 98.4391 37.5681 97.5218 38.0801C96.6258 38.5921 95.6764 38.8481 94.6738 38.8481C93.6284 38.8481 92.6578 38.6774 91.7618 38.3361C90.8658 37.9734 90.0764 37.4507 89.3938 36.7681C88.7324 36.0641 88.2098 35.2107 87.8258 34.2081C87.4418 33.2054 87.2498 32.0427 87.2498 30.7201V30.2081C87.2498 28.9067 87.4418 27.7547 87.8258 26.7521C88.2098 25.7494 88.7324 24.9067 89.3938 24.2241C90.0764 23.5201 90.8658 22.9867 91.7618 22.6241C92.6578 22.2614 93.6071 22.0801 94.6098 22.0801C95.6978 22.0801 96.6791 22.3254 97.5538 22.8161C98.4498 23.2854 99.1538 24.0214 99.6658 25.0241H100.05V22.5281H102.546V35.1361C102.546 35.7761 102.834 36.0961 103.41 36.0961H104.21V38.4001H102.514C101.788 38.4001 101.191 38.1654 100.722 37.6961C100.274 37.2267 100.05 36.6294 100.05 35.9041V35.7121ZM94.9298 36.4801C95.6764 36.4801 96.3591 36.3414 96.9778 36.0641C97.6178 35.7867 98.1618 35.3921 98.6098 34.8801C99.0578 34.3681 99.4098 33.7601 99.6658 33.0561C99.9218 32.3307 100.05 31.5307 100.05 30.6561V30.2721C100.05 29.4187 99.9218 28.6401 99.6658 27.9361C99.4098 27.2107 99.0471 26.5921 98.5778 26.0801C98.1298 25.5681 97.5858 25.1734 96.9458 24.8961C96.3271 24.5974 95.6551 24.4481 94.9298 24.4481C94.1831 24.4481 93.5004 24.5867 92.8818 24.8641C92.2631 25.1414 91.7191 25.5361 91.2498 26.0481C90.8018 26.5387 90.4498 27.1467 90.1938 27.8721C89.9378 28.5761 89.8098 29.3547 89.8098 30.2081V30.7201C89.8098 32.5334 90.2791 33.9521 91.2178 34.9761C92.1778 35.9787 93.4151 36.4801 94.9298 36.4801Z" fill="white"/>
<path d="M71.688 38.4H69V16H71.688V25.92H72.424L81.032 16H84.36V16.192L75.08 27.008V27.392L84.744 38.208V38.4H81.352L72.424 28.416H71.688V38.4Z" fill="white"/>
</svg>
