<svg width="1922" height="5826" viewBox="0 0 1922 5826" fill="none" xmlns="http://www.w3.org/2000/svg">
<path fill-rule="evenodd" clip-rule="evenodd" d="M1922 0H0V2264V2404V4484H0.978149L0.5 5818.5L34 5816.5H44L100.5 5817H118L140 5816L187.5 5816.5H208L275.5 5817L310 5816.5H363L389 5812.5L452.5 5798L538 5766L578.5 5752.5L626.5 5734.5L645 5735.5L712 5762L721 5766.5L784.5 5792L801 5799.5L835.5 5812L865 5801.5L911.5 5785.5L921.5 5779.5L991 5756L998.5 5751.5L1068 5736.5L1088.5 5746.5L1153.5 5770.5L1227 5799.5L1237 5805.5L1260.5 5812.5L1309 5820.5L1321 5812.5L1397 5803L1408 5803.5L1476 5795L1493.5 5792L1577.5 5801L1634.5 5811L1730 5825.5L1740.5 5818.5L1807 5801.5L1829.5 5794.5L1900 5777L1921 5771V4484H1922V2404V2264V0Z" fill="black"/>
</svg>
