<svg width="1922" height="1405" viewBox="0 0 1922 1405" fill="none" xmlns="http://www.w3.org/2000/svg">
<path d="M34 1394.5L0.5 1396.5L1 1H1921V1349L1900 1355L1829.5 1372.5L1807 1379.5L1740.5 1396.5L1730 1403.5L1634.5 1389L1577.5 1379L1493.5 1370L1476 1373L1408 1381.5L1397 1381L1321 1390.5L1309 1398.5L1260.5 1390.5L1237 1383.5L1227 1377.5L1153.5 1348.5L1088.5 1324.5L1068 1314.5L998.5 1329.5L991 1334L921.5 1357.5L911.5 1363.5L865 1379.5L835.5 1390L801 1377.5L784.5 1370L721 1344.5L712 1340L645 1313.5L626.5 1312.5L578.5 1330.5L538 1344L452.5 1376L389 1390.5L363 1394.5H310L275.5 1395L208 1394.5H187.5L140 1394L118 1395H100.5L44 1394.5H34Z" fill="black" stroke="black"/>
</svg>
