<svg width="54" height="54" viewBox="0 0 54 54" fill="none" xmlns="http://www.w3.org/2000/svg">
<path d="M0 27.4773C0 24.2128 3.66102 21.0106 10.1538 16.2174C15.6128 12.1874 24.3843 7.00446 27.0392 5.45611C27.4854 5.19592 28.0509 5.3196 28.3488 5.74145C29.6574 7.59416 33.0456 12.3841 34.1538 13.8804C35.5385 15.75 39.0976 20.8913 41.5385 20.8913C43.4238 20.8913 49.8315 18.6604 52.6504 17.645C53.3066 17.4086 54 17.8952 54 18.5927V27.4773L54 35.3842C54 36.1321 53.2096 36.6199 52.539 36.2887C49.9832 35.0266 44.8344 32.5761 43.3846 32.5761C41.4319 32.5761 39.5414 33.8295 38.0769 35.7841C36.8417 37.4326 31.4395 44.9901 29.778 47.3165C29.4956 47.7118 28.9706 47.8469 28.5336 47.6348C25.9418 46.3769 17.3743 42.166 13.6686 39.6932C9.27515 36.7614 0 30.7418 0 27.4773Z" fill="white"/>
<rect x="17" y="26" width="21" height="2" rx="1" fill="black"/>
<path d="M5 27.4998C5 25.9706 9.94997 22.0833 14 21C12.2 25.2059 12.2 29.7941 14 34C9.05 32.1944 5 29.0291 5 27.4998Z" fill="black"/>
<path d="M43.4892 25.629C45.956 24.1944 50.7434 21.4479 52 21C49.619 23.2917 49.6151 25.6731 49.619 27.4167C49.6238 29.5061 50.0952 29.7083 52 32C50.4799 31.2611 45.9021 28.6995 43.5034 27.3488C42.8332 26.9715 42.8243 26.0156 43.4892 25.629Z" fill="black"/>
<path d="M21 15C17.6667 19.2484 17 23.8944 17 27H19.4C19.1333 24.3665 20.3333 18.7764 21 15Z" fill="black"/>
<path d="M28 17C24.6667 20.5404 24 24.412 24 27H26.4C26.1333 24.8054 27.3333 20.147 28 17Z" fill="black"/>
<path d="M34 20C30.6667 22.4783 30 25.1884 30 27H32.4C32.1333 25.4638 33.3333 22.2029 34 20Z" fill="black"/>
<path d="M40 23C37.5 24.4161 37 25.9648 37 27H38.8C38.6 26.1222 39.5 24.2588 40 23Z" fill="black"/>
<path d="M28 37C24.6667 33.4596 24 29.588 24 27H26.4C26.1333 29.1946 27.3333 33.853 28 37Z" fill="black"/>
<path d="M21 39C17.6667 34.7516 17 30.1056 17 27H19.4C19.1333 29.6335 20.3333 35.2236 21 39Z" fill="black"/>
<path d="M34 34C30.6667 31.5217 30 28.8116 30 27H32.4C32.1333 28.5362 33.3333 31.7971 34 34Z" fill="black"/>
<path d="M40 31C37.5 29.5839 37 28.0352 37 27H38.8C38.6 27.8778 39.5 29.7412 40 31Z" fill="black"/>
</svg>
