<svg width="1918" height="3074" viewBox="0 0 1918 3074" fill="none" xmlns="http://www.w3.org/2000/svg">
<path fill-rule="evenodd" clip-rule="evenodd" d="M0 84.4105L32 82.5H42L98.5 83H116L138 82L185.5 82.5H206L273.5 83L308 82.5H361L387 78.5L450.5 64L536 32L576.5 18.5L624.5 0.5L643 1.5L710 28L719 32.5L782.5 58L799 65.5L833.5 78L863 67.5L909.5 51.5L919.5 45.5L989 22L996.5 17.5L1066 2.5L1086.5 12.5L1151.5 36.5L1225 65.5L1235 71.5L1258.5 78.5L1307 86.5L1319 78.5L1395 69L1406 69.5L1474 61L1491.5 58L1575.5 67L1632.5 77L1728 91.5L1738.5 84.5L1805 67.5L1827.5 60.5L1898 43L1918 37.2857V3074H0V84.4105Z" fill="black"/>
</svg>
